<?xml version="1.0" encoding="utf-8"?>
<!-- Generator: Adobe Illustrator 17.1.0, SVG Export Plug-In . SVG Version: 6.00 Build 0)  -->
<!DOCTYPE svg PUBLIC "-//W3C//DTD SVG 1.1//EN" "http://www.w3.org/Graphics/SVG/1.1/DTD/svg11.dtd">
<svg version="1.1" id="Слой_1" xmlns="http://www.w3.org/2000/svg" xmlns:xlink="http://www.w3.org/1999/xlink" x="0px" y="0px"
	 viewBox="0 0 23.2 18" enable-background="new 0 0 23.2 18" xml:space="preserve">
<path fill="#424143" d="M12.8,9c0,2.8,0,5.6,0,8.4c-1.2,0-2.3,0-3.5,0c0-2.8,0-5.6,0-8.4C8.8,9,8.2,9,7.7,9c0-1,0-2,0-3
	c0.5,0,1.1,0,1.7,0c0-0.1,0-0.2,0-0.2c0-0.7,0-1.4,0-2.1C9.5,2.6,9.9,1.6,10.9,1c0.5-0.3,1.1-0.4,1.7-0.4c0.9,0,1.8,0,2.7,0
	c0,0,0,0,0.1,0c0,1,0,1.9,0,2.9c-0.1,0-0.3,0-0.4,0c-0.5,0-1,0-1.5,0c-0.4,0-0.7,0.2-0.8,0.7c0,0.6,0,1.2,0,1.9c0.9,0,1.8,0,2.7,0
	c-0.1,1-0.2,2-0.3,3C14.4,9,13.6,9,12.8,9z"/>
</svg>
