<?xml version="1.0" encoding="utf-8"?>
<!-- Generator: Adobe Illustrator 17.1.0, SVG Export Plug-In . SVG Version: 6.00 Build 0)  -->
<!DOCTYPE svg PUBLIC "-//W3C//DTD SVG 1.1//EN" "http://www.w3.org/Graphics/SVG/1.1/DTD/svg11.dtd">
<svg version="1.1" id="Слой_1" xmlns="http://www.w3.org/2000/svg" xmlns:xlink="http://www.w3.org/1999/xlink" x="0px" y="0px"
	 viewBox="0 0 242.5 47.5" enable-background="new 0 0 242.5 47.5" xml:space="preserve">
<path fill="#A65E33" d="M21.4,1.5C7.6,1.5,1.5,11.9,1.5,19.3c0,8.5,6.7,15.4,15.3,15.8v6.5h-2.4v4.6l0.6,0c0,0,1.6,0,3.3,0
	c0.9,0,1.8,0,2.5,0c7.1-0.2,13.1-2.4,17.2-6.3c4.2-4,6.5-9.7,6.5-15.8C44.5,10.9,34.8,1.5,21.4,1.5z M21.3,34.9
	c6.6-0.8,11-5,11-10.5c0-3.2-1.3-6.1-3.6-8.1c-2-1.7-4.5-2.6-7.9-2.7c-0.6,0-1.5,0-2.6,0c-1.6,0-3.3,0-3.3,0l-0.6,0v4.6h2.4v12.3
	C10.6,30.1,6,25.3,6,19.3C6,13.8,10.8,6,21.4,6c12.2,0,18.6,9,18.6,18c0,4.9-1.8,9.4-5.1,12.5c-3.3,3.2-8,4.9-13.5,5V34.9z
	 M27.7,24.4c0,4.2-4.2,5.5-6.4,5.9V18.2c1.8,0.1,3.3,0.6,4.4,1.6C27,20.9,27.7,22.5,27.7,24.4z"/>
<g>
	<path fill="#414042" d="M104.7,7.1c-5.2,0-7.2,4-7.2,7.9c0,4,1.9,7.7,7.2,7.7c5.3,0,7.1-3.9,7.2-7.7
		C111.9,11.1,109.8,7.1,104.7,7.1z M104.7,20.1c-3.5,0-4.3-2.6-4.4-5.1c-0.1-2.5,0.9-5.4,4.4-5.4c3.5,0,4.4,2.8,4.4,5.4
		C109,17.5,108.2,20.1,104.7,20.1z"/>
	<path fill="#414042" d="M217.6,13.2c-1.8-0.2-3.4-0.6-3.4-1.9c0-1.1,1-2,3.1-2c1.4,0,2.7,0.6,3.3,1.4c0,0,0,0,0,0l0.2,0.3l2.3-1.2
		l-0.3-0.5l0,0c-1.2-1.9-3.4-2.4-5.6-2.4c-2.8,0-5.8,1.3-5.8,4.4c0,3.4,2.8,4.2,5.9,4.5c2,0.2,3.5,0.8,3.5,2.2
		c0,1.6-1.7,2.3-3.4,2.3c-1.6,0-3.1-0.6-3.9-1.8l-0.3-0.6l-1,0.5l-1.4,0.7l0.4,0.7h0c1.2,2.2,3.4,3,6.2,3c3.3,0,6.3-1.4,6.3-4.8
		C223.6,14.4,220.7,13.6,217.6,13.2z"/>
	<path fill="#414042" d="M235.1,13.2c-1.8-0.2-3.4-0.6-3.4-1.9c0-1.1,1-2,3.1-2c1.4,0,2.7,0.6,3.3,1.4c0,0,0.2,0.4,0.2,0.4l2.3-1.2
		l-0.3-0.5l0,0c-1.2-1.9-3.4-2.4-5.6-2.4c-2.8,0-5.8,1.3-5.8,4.4c0,3.4,2.8,4.2,5.9,4.5c2,0.2,3.5,0.8,3.5,2.2
		c0,1.6-1.7,2.3-3.4,2.3c-1.6,0-3.1-0.6-3.9-1.8l-0.3-0.6l-2.4,1.2l0.4,0.7h0c1.2,2.2,3.4,3,6.2,3c3.3,0,6.3-1.4,6.3-4.8
		C241.1,14.4,238.2,13.6,235.1,13.2z"/>
	<path fill="#414042" d="M160.9,7.4h-7.5V10h1.6l0,12.4h5.9c5.2,0,7.6-3.8,7.5-7.6C168.3,11.1,166,7.4,160.9,7.4z M160.9,19.7
		l-3.1,0v-9.6l3.1,0c3.3,0,4.6,2.3,4.7,4.7C165.7,17.2,164.3,19.7,160.9,19.7z"/>
	<path fill="#414042" d="M67.6,7.4H59v2.5h1.6l0,12.5h2.8l0-4.5l4.2,0C75,17.9,75,7.4,67.6,7.4z M67.6,15.4l-4.2,0V10l4.2,0
		C71.2,10,71.3,15.4,67.6,15.4z"/>
	<path fill="#414042" d="M91.8,22.4v-3.1l-1.3,0c-0.2,0-0.3-0.1-0.4-0.2l-1.2-1.3c-0.2-0.3-0.1-0.7,0.2-0.9c2.2-0.8,3-2.6,3-4.5
		c0-2.6-1.9-4.9-5.4-5c-1.8,0-8.7,0-8.7,0v2.5h1.6l0,12.5h2.9v-5h2.5c0.2,0,0.3,0.1,0.4,0.2l4,4.6c0.1,0.1,0.3,0.2,0.4,0.2H91.8z
		 M86.7,14.9h-4.3l0-5l4.3,0c1.8,0,2.6,1.3,2.6,2.5C89.3,13.6,88.5,14.9,86.7,14.9z"/>
	<polygon fill="#414042" points="116.8,9.9 118.4,9.9 118.4,22.4 121.2,22.4 121.2,16.8 127.9,16.8 127.9,14.3 121.2,14.3 
		121.2,9.9 129.1,9.9 129.1,7.4 116.8,7.4 	"/>
	<polygon fill="#414042" points="134.5,10 136.1,10 136.1,22.4 138.9,22.4 138.9,7.4 134.5,7.4 	"/>
	<path fill="#414042" d="M184.4,16.9c2.2-0.8,3-2.6,3-4.5c0-2.6-1.9-4.9-5.4-5c-1.8,0-8.7,0-8.7,0v2.5h1.6l0,12.5h2.9l0-5l2.5,0
		c0.2,0,0.3,0.1,0.4,0.2l4,4.6c0.1,0.1,0.3,0.2,0.4,0.2h2.1v-3.1l-1.3,0c-0.2,0-0.3-0.1-0.4-0.2l-1.2-1.3
		C183.9,17.5,184,17,184.4,16.9z M182,14.9h-4.3l0-5l4.3,0c1.8,0,2.6,1.3,2.6,2.5C184.5,13.6,183.8,14.9,182,14.9z"/>
	<polygon fill="#414042" points="192.7,10 194.3,10 194.3,22.4 205.5,22.4 205.5,19.9 197.1,19.9 197.1,16.2 204.4,16.2 204.4,13.6 
		197.1,13.6 197.1,10 205.5,10 205.5,7.4 192.7,7.4 	"/>
</g>
<g>
	<g>
		<path fill="#414042" d="M79.7,39.5h1.9v-5.1h1.3v6.1h-7.7v-6.1h1.3v5.1h1.9v-5.1h1.3V39.5z"/>
		<path fill="#414042" d="M88.7,34.4h1.9c0.9,0,1.5,0.1,1.9,0.4c0.4,0.2,0.6,0.6,0.6,1.2c0,0.4-0.1,0.7-0.3,0.9
			c-0.2,0.2-0.4,0.4-0.7,0.4v0c0.4,0.1,0.7,0.2,0.8,0.5c0.2,0.2,0.3,0.6,0.3,0.9c0,0.6-0.2,1-0.6,1.3c-0.4,0.3-1,0.5-1.6,0.5h-2.3
			V34.4z M90,36.9h0.8c0.4,0,0.6-0.1,0.8-0.2c0.2-0.1,0.2-0.3,0.2-0.5c0-0.2-0.1-0.4-0.3-0.5c-0.2-0.1-0.4-0.2-0.8-0.2H90V36.9z
			 M90,37.9v1.6h0.8c0.4,0,0.6-0.1,0.8-0.2c0.2-0.1,0.3-0.3,0.3-0.6c0-0.5-0.4-0.8-1.1-0.8H90z"/>
		<path fill="#414042" d="M102.3,40.6h-3.5v-6.1h3.5v1.1h-2.2v1.3h2.1v1.1h-2.1v1.6h2.2V40.6z"/>
		<path fill="#414042" d="M107.9,34.4h1.2v3l0,0.8l0,0.9h0l2.8-4.7h1.6v6.1h-1.2v-2.9c0-0.4,0-1,0.1-1.8h0l-2.8,4.7h-1.6V34.4z
			 M112.7,32.5c-0.1,0.5-0.2,0.9-0.6,1.1c-0.3,0.2-0.8,0.4-1.5,0.4c-0.7,0-1.2-0.1-1.5-0.3c-0.3-0.2-0.5-0.6-0.5-1.2h1.1
			c0,0.3,0.1,0.5,0.2,0.6c0.1,0.1,0.3,0.2,0.7,0.2c0.3,0,0.5-0.1,0.6-0.2c0.1-0.1,0.2-0.3,0.3-0.6H112.7z"/>
		<path fill="#414042" d="M124.3,40.6H123v-2.6h-2.4v2.6h-1.3v-6.1h1.3v2.4h2.4v-2.4h1.3V40.6z"/>
		<path fill="#414042" d="M133.9,40.6l-0.4-1.5h-2.2l-0.4,1.5h-1.4l2.2-6.2h1.6l2.2,6.2H133.9z M133.2,38c-0.4-1.3-0.6-2.1-0.7-2.2
			c-0.1-0.2-0.1-0.3-0.1-0.4c-0.1,0.4-0.4,1.2-0.8,2.7H133.2z"/>
		<path fill="#414042" d="M142.5,38.2l-1.4,2.4h-1.4l1.7-2.7c-0.3-0.1-0.6-0.4-0.8-0.6c-0.2-0.3-0.3-0.6-0.3-1c0-0.6,0.2-1,0.6-1.3
			c0.4-0.3,1-0.5,1.7-0.5h2v6.1h-1.3v-2.4H142.5z M143.3,35.5h-0.6c-0.3,0-0.6,0.1-0.8,0.2c-0.2,0.1-0.3,0.3-0.3,0.6
			c0,0.3,0.1,0.5,0.3,0.6c0.2,0.2,0.5,0.2,0.8,0.2h0.6V35.5z"/>
		<path fill="#414042" d="M159.3,40.7v-0.9h-0.1c-0.5,0-1-0.1-1.4-0.3c-0.4-0.2-0.7-0.5-0.9-0.8c-0.2-0.4-0.3-0.8-0.3-1.2
			c0-0.4,0.1-0.8,0.3-1.2c0.2-0.3,0.5-0.6,0.9-0.8c0.4-0.2,0.8-0.3,1.3-0.3h0.2v-0.8h1.2v0.8h0.2c0.5,0,1,0.1,1.3,0.3
			c0.4,0.2,0.7,0.5,0.9,0.8c0.2,0.3,0.3,0.7,0.3,1.2c0,0.4-0.1,0.9-0.3,1.2c-0.2,0.4-0.5,0.6-0.9,0.8c-0.4,0.2-0.8,0.3-1.4,0.3h-0.1
			v0.9H159.3z M159.3,36.1h-0.2c-0.4,0-0.7,0.1-1,0.3c-0.2,0.2-0.4,0.5-0.4,0.9c0,0.4,0.1,0.7,0.4,1c0.3,0.2,0.6,0.4,1.1,0.4h0.1
			V36.1z M160.4,38.7L160.4,38.7c0.5,0,0.9-0.1,1.1-0.4c0.3-0.2,0.4-0.6,0.4-1c0-0.4-0.1-0.7-0.4-0.9c-0.2-0.2-0.6-0.3-1-0.3h-0.2
			V38.7z"/>
		<path fill="#414042" d="M172.4,40.6l-0.4-1.5h-2.2l-0.4,1.5h-1.4l2.2-6.2h1.6l2.2,6.2H172.4z M171.6,38c-0.4-1.3-0.6-2.1-0.7-2.2
			c-0.1-0.2-0.1-0.3-0.1-0.4c-0.1,0.4-0.4,1.2-0.8,2.7H171.6z"/>
		<path fill="#414042" d="M180.2,36.8h0.5c0.8,0,1.4,0.2,1.9,0.5c0.4,0.3,0.7,0.8,0.7,1.4c0,1.3-0.8,1.9-2.5,1.9h-1.8v-6.1h3.9v1.1
			h-2.6V36.8z M180.2,39.5h0.4c0.4,0,0.8-0.1,1-0.2c0.2-0.1,0.3-0.4,0.3-0.6c0-0.3-0.1-0.5-0.3-0.6c-0.2-0.1-0.6-0.2-1.1-0.2h-0.3
			V39.5z"/>
		<path fill="#414042" d="M192.9,36.4c0,0.7-0.2,1.2-0.6,1.5c-0.4,0.3-1,0.5-1.8,0.5h-0.6v2.2h-1.3v-6.1h2c0.7,0,1.3,0.2,1.7,0.5
			C192.7,35.2,192.9,35.7,192.9,36.4z M189.9,37.3h0.4c0.4,0,0.7-0.1,0.9-0.2c0.2-0.2,0.3-0.4,0.3-0.7c0-0.3-0.1-0.5-0.2-0.7
			c-0.2-0.1-0.4-0.2-0.8-0.2h-0.6V37.3z"/>
		<path fill="#414042" d="M198.3,34.4h1.2v3l0,0.8l0,0.9h0l2.8-4.7h1.6v6.1h-1.2v-2.9c0-0.4,0-1,0.1-1.8h0l-2.8,4.7h-1.6V34.4z"/>
		<path fill="#414042" d="M214.7,40.6h-1.5l-2.2-3.1v3.1h-1.3v-6.1h1.3v3l2.2-3h1.4l-2.2,2.9L214.7,40.6z"/>
		<path fill="#414042" d="M223.5,40.6l-0.4-1.5h-2.2l-0.4,1.5H219l2.2-6.2h1.6l2.2,6.2H223.5z M222.8,38c-0.4-1.3-0.6-2.1-0.7-2.2
			c-0.1-0.2-0.1-0.3-0.1-0.4c-0.1,0.4-0.4,1.2-0.8,2.7H222.8z"/>
	</g>
</g>
</svg>
