<?xml version="1.0" encoding="utf-8"?>
<!-- Generator: Adobe Illustrator 17.1.0, SVG Export Plug-In . SVG Version: 6.00 Build 0)  -->
<!DOCTYPE svg PUBLIC "-//W3C//DTD SVG 1.1//EN" "http://www.w3.org/Graphics/SVG/1.1/DTD/svg11.dtd">
<svg version="1.1" id="Слой_1" xmlns="http://www.w3.org/2000/svg" xmlns:xlink="http://www.w3.org/1999/xlink" x="0px" y="0px"
	 viewBox="0 0 23.2 18" enable-background="new 0 0 23.2 18" xml:space="preserve">
<g>
	<g>
		<path fill="#424143" d="M22,13.8c0-0.1,0-0.1-0.1-0.1c-0.4-0.7-1.1-1.5-2.1-2.4l0,0l0,0l0,0h0c-0.5-0.4-0.8-0.7-0.9-0.9
			c-0.2-0.3-0.3-0.6-0.2-0.9c0.1-0.2,0.4-0.7,1-1.4c0.3-0.4,0.5-0.7,0.7-0.9c1.3-1.7,1.8-2.8,1.6-3.2L22,3.7c0-0.1-0.2-0.1-0.3-0.2
			c-0.2-0.1-0.4-0.1-0.7,0l-3.2,0c-0.1,0-0.1,0-0.2,0c-0.1,0-0.1,0-0.1,0l-0.1,0l0,0c0,0-0.1,0.1-0.1,0.1c0,0.1-0.1,0.1-0.1,0.2
			c-0.3,0.9-0.7,1.7-1.2,2.5c-0.3,0.5-0.5,0.8-0.7,1.2c-0.2,0.3-0.4,0.6-0.6,0.7c-0.2,0.2-0.3,0.3-0.4,0.4c-0.1,0.1-0.2,0.1-0.3,0.1
			c-0.1,0-0.1,0-0.2,0c-0.1-0.1-0.2-0.2-0.2-0.3c-0.1-0.1-0.1-0.3-0.1-0.4c0-0.2,0-0.3,0-0.4c0-0.1,0-0.3,0-0.5c0-0.2,0-0.4,0-0.5
			c0-0.3,0-0.6,0-0.9c0-0.3,0-0.6,0-0.8c0-0.2,0-0.4,0-0.6s0-0.4,0-0.5c0-0.1-0.1-0.2-0.1-0.4c-0.1-0.1-0.1-0.2-0.2-0.3
			c-0.1-0.1-0.2-0.1-0.4-0.1C12.3,3,11.8,3,11.2,3C9.8,3,9,3.1,8.6,3.2C8.4,3.3,8.3,3.4,8.2,3.6C8,3.7,8,3.8,8.1,3.8
			C8.5,3.9,8.9,4.1,9,4.3l0.1,0.1c0.1,0.1,0.1,0.3,0.2,0.5c0.1,0.2,0.1,0.5,0.1,0.8c0,0.5,0,1,0,1.4c0,0.4-0.1,0.7-0.1,0.9
			c0,0.2-0.1,0.4-0.1,0.5C9,8.7,9,8.7,9,8.8c0,0,0,0-0.1,0.1c-0.1,0-0.2,0.1-0.3,0.1c-0.1,0-0.2-0.1-0.4-0.2
			C8.1,8.6,7.9,8.5,7.8,8.3C7.6,8.1,7.5,7.9,7.3,7.5C7.1,7.2,6.9,6.8,6.6,6.4L6.5,6.1C6.4,5.9,6.2,5.6,6,5.2
			C5.8,4.8,5.7,4.4,5.5,4.1C5.5,3.9,5.4,3.8,5.3,3.7l-0.1,0c0,0-0.1-0.1-0.2-0.1c-0.1,0-0.2-0.1-0.3-0.1l-3,0
			c-0.3,0-0.5,0.1-0.6,0.2l0,0.1c0,0,0,0.1,0,0.2c0,0.1,0,0.2,0.1,0.3c0.4,1,0.9,2,1.4,3s1,1.7,1.3,2.3c0.4,0.6,0.8,1.1,1.2,1.7
			c0.4,0.5,0.7,0.9,0.8,1c0.1,0.1,0.2,0.3,0.3,0.3l0.3,0.3c0.2,0.2,0.4,0.4,0.8,0.6c0.3,0.2,0.7,0.5,1.1,0.7
			c0.4,0.2,0.9,0.4,1.4,0.6c0.5,0.1,1.1,0.2,1.6,0.2h1.3c0.3,0,0.4-0.1,0.6-0.2l0-0.1c0,0,0.1-0.1,0.1-0.2c0-0.1,0-0.2,0-0.3
			c0-0.3,0-0.6,0.1-0.8c0.1-0.3,0.1-0.4,0.2-0.6c0.1-0.1,0.1-0.2,0.2-0.3c0.1-0.1,0.2-0.1,0.2-0.2c0,0,0.1,0,0.1,0
			c0.2-0.1,0.4,0,0.6,0.2c0.2,0.2,0.5,0.4,0.7,0.6c0.2,0.3,0.5,0.5,0.8,0.8c0.3,0.3,0.5,0.5,0.8,0.7l0.2,0.1
			c0.1,0.1,0.3,0.2,0.6,0.2C18,15,18.2,15,18.4,15l2.8,0c0.3,0,0.5,0,0.6-0.1c0.2-0.1,0.2-0.2,0.3-0.3c0-0.1,0-0.2,0-0.4
			C22.1,14,22,13.9,22,13.8z"/>
	</g>
</g>
</svg>
