<?xml version="1.0" encoding="utf-8"?>
<!-- Generator: Adobe Illustrator 17.1.0, SVG Export Plug-In . SVG Version: 6.00 Build 0)  -->
<!DOCTYPE svg PUBLIC "-//W3C//DTD SVG 1.1//EN" "http://www.w3.org/Graphics/SVG/1.1/DTD/svg11.dtd">
<svg version="1.1" id="Слой_1" xmlns="http://www.w3.org/2000/svg" xmlns:xlink="http://www.w3.org/1999/xlink" x="0px" y="0px"
	 viewBox="0 0 23.2 18" enable-background="new 0 0 23.2 18" xml:space="preserve">
<g>
	<path fill="#424143" d="M19,4.7c-0.4-1.6-1.7-2.8-3.4-3.1c-0.2,0-0.4,0-0.7,0c-2.2,0-4.3,0-6.5,0c-2,0-3.7,1.3-4.1,3.4
		C4.3,5.2,4.3,5.5,4.2,5.7c0,2.2,0,4.3,0,6.5c0,2.1,1.3,3.7,3.4,4.1c0.2,0.1,0.5,0.1,0.8,0.1c2.2,0,4.4,0,6.6,0c0.3,0,0.7-0.1,1-0.2
		c1.6-0.4,2.8-1.8,3.1-3.4c0-0.2,0-0.4,0.1-0.6c0-2.2,0-4.4,0-6.6C19.1,5.3,19.1,5,19,4.7z M11.7,13.1c-2.3,0-4.1-1.9-4.1-4.1
		c0-2.3,1.9-4.1,4.1-4.1c2.3,0,4.1,1.9,4.1,4.1C15.8,11.3,13.9,13.1,11.7,13.1z M16.6,4.9c-0.5,0-0.8-0.4-0.8-0.8
		c0-0.5,0.4-0.8,0.8-0.8c0.5,0,0.8,0.4,0.8,0.8C17.5,4.5,17.1,4.8,16.6,4.9z"/>
	<path fill="#424143" d="M11.7,6.5c-1.4,0-2.5,1.1-2.5,2.5c0,1.4,1.1,2.5,2.5,2.5c1.4,0,2.5-1.1,2.5-2.5C14.1,7.6,13,6.5,11.7,6.5z"
		/>
</g>
</svg>
