<?xml version="1.0" encoding="utf-8"?>
<!-- Generator: Adobe Illustrator 17.1.0, SVG Export Plug-In . SVG Version: 6.00 Build 0)  -->
<!DOCTYPE svg PUBLIC "-//W3C//DTD SVG 1.1//EN" "http://www.w3.org/Graphics/SVG/1.1/DTD/svg11.dtd">
<svg version="1.1" id="Слой_1" xmlns="http://www.w3.org/2000/svg" xmlns:xlink="http://www.w3.org/1999/xlink" x="0px" y="0px"
	 viewBox="0 0 23.2 18" enable-background="new 0 0 23.2 18" xml:space="preserve">
<g>
	<g>
		<path fill="#424143" d="M11.6,1.4c2.1,0.1,4.3,0.1,6.4,0.2c0.7,0,1.3,0.1,2,0.2c1,0.2,1.7,0.8,2,1.8c0.3,0.7,0.3,1.5,0.4,2.3
			c0.1,1.9,0.1,3.8,0,5.7c0,0.9-0.1,1.9-0.4,2.8c-0.3,1.1-1.1,1.8-2.3,1.9c-0.8,0.1-1.7,0.2-2.5,0.2c-3.2,0.2-6.4,0.1-9.6,0.1
			c-1.4,0-2.7-0.1-4-0.2c-1.1-0.1-1.9-0.7-2.4-1.7c-0.2-0.4-0.3-0.9-0.3-1.4c-0.3-2-0.2-4-0.2-6.1c0-0.9,0.1-1.8,0.2-2.7
			C1,4,1.1,3.4,1.5,2.9C2,2.1,2.8,1.8,3.7,1.7C6.3,1.4,9,1.4,11.6,1.4C11.6,1.4,11.6,1.4,11.6,1.4z M8.8,12.4
			c2.3-1.2,4.6-2.4,6.9-3.6c-2.3-1.2-4.6-2.4-6.9-3.6C8.8,7.6,8.8,10,8.8,12.4z"/>
	</g>
</g>
</svg>
